<?xml version="1.0" encoding="UTF-8"?>
<svg xmlns="http://www.w3.org/2000/svg" viewBox="0 0 1600 1000"
     preserveAspectRatio="xMidYMid meet"
     font-family="ui-sans-serif, system-ui, -apple-system, 'Segoe UI', Roboto, sans-serif"
     role="img"
     aria-label="UWV Reference Data- en Analyseplatform — visuele referentie-architectuur">
  <title>UWV Reference Data- en Analyseplatform</title>
  <desc>Reference-architectuur in Monte-Carlo-stijl: bronnen, ingestie, opslag en verwerking, transformatie en modellen, en BI/data-producten — met overlay-lagen voor data-discovery, pipeline-orkestratie en observability, en een identiteit-pijler aan de rechterkant.</desc>

  <defs>
    <!-- ─── Filters ─── -->
    <filter id="tile-shadow" x="-20%" y="-20%" width="140%" height="140%">
      <feDropShadow dx="0" dy="2" stdDeviation="3" flood-color="#000" flood-opacity="0.35"/>
    </filter>

    <!-- ─── Subtle dot-grid achtergrond ─── -->
    <pattern id="dotgrid" x="0" y="0" width="32" height="32" patternUnits="userSpaceOnUse">
      <circle cx="1" cy="1" r="1" fill="#1a212a"/>
    </pattern>

    <!-- ─── Brand-tegels (24×24 viewBox) ─── -->
    <symbol id="brand-keycloak" viewBox="0 0 24 24">
      <rect width="24" height="24" rx="5" fill="#4D4D4D"/>
      <path d="M12 4.5 5 7v5.1c0 3.85 2.85 7.4 7 8.4 4.15-1 7-4.55 7-8.4V7l-7-2.5z" fill="#fff"/>
      <circle cx="9.7" cy="11.6" r="2.1" fill="#E0392F"/>
      <path d="M11.4 11.6h5.5v1.4h-2.6v1.5h-1.4v-1.5h-1.5z" fill="#E0392F"/>
    </symbol>

    <symbol id="brand-nifi" viewBox="0 0 24 24">
      <rect width="24" height="24" rx="5" fill="#728E9B"/>
      <path d="M5 8c2 0 3.5 1 4 4s1.5 4 4 4M5 16c2 0 3.5-1 4-4M11 12c.5-3 2-4 4-4M15 12c.5 3 2 4 4 4M15 12c.5-3 2-4 4-4" fill="none" stroke="#fff" stroke-width="1.5" stroke-linecap="round" stroke-linejoin="round"/>
      <circle cx="5"  cy="8"  r="1.4" fill="#fff"/>
      <circle cx="5"  cy="16" r="1.4" fill="#fff"/>
      <circle cx="19" cy="8"  r="1.4" fill="#fff"/>
      <circle cx="19" cy="16" r="1.4" fill="#fff"/>
    </symbol>

    <symbol id="brand-kafka" viewBox="0 0 24 24">
      <rect width="24" height="24" rx="5" fill="#231F20"/>
      <circle cx="6.8"  cy="12"  r="1.7" fill="#fff"/>
      <circle cx="17.2" cy="7.2" r="1.7" fill="#fff"/>
      <circle cx="17.2" cy="16.8" r="1.7" fill="#fff"/>
      <circle cx="12"   cy="12"   r="2.2" fill="#fff"/>
      <path d="M8.3 11.2l3-1M8.3 12.8l3 1M14.1 10.6l1.7-2.5M14.1 13.4l1.7 2.5"
            stroke="#fff" stroke-width="1.2" stroke-linecap="round"/>
    </symbol>

    <symbol id="brand-minio" viewBox="0 0 24 24">
      <rect width="24" height="24" rx="5" fill="#C72E49"/>
      <path d="M5.5 7h2v10h-2zM8.5 7h2l3.2 6.4V7h2v10h-2l-3.2-6.4V17h-2zM16.5 7h2v10h-2z" fill="#fff"/>
    </symbol>

    <symbol id="brand-hive" viewBox="0 0 24 24">
      <rect width="24" height="24" rx="5" fill="#FDEE21"/>
      <g transform="translate(1.5 0)" fill="none" stroke="#1f1f00" stroke-width="1.4" stroke-linejoin="round">
        <path d="M8 5.5h4l2 3.5-2 3.5H8L6 9z"/>
        <path d="M12 12.5h4l2 3.5-2 3.5h-4l-2-3.5z"/>
        <path d="M4 12.5h4l2 3.5-2 3.5H4l-2-3.5z"/>
      </g>
    </symbol>

    <symbol id="brand-spark" viewBox="0 0 24 24">
      <rect width="24" height="24" rx="5" fill="#E25A1C"/>
      <path d="M12 3l1.6 5.4 5.4 1.6-4 3.4 1.4 5.6L12 16l-4.4 3 1.4-5.6-4-3.4 5.4-1.6z" fill="#fff"/>
    </symbol>

    <symbol id="brand-trino" viewBox="0 0 24 24">
      <rect width="24" height="24" rx="5" fill="#DD00A1"/>
      <circle cx="12" cy="12" r="4" fill="#fff"/>
      <g stroke="#fff" stroke-width="1.6" stroke-linecap="round">
        <path d="M12 3v3M12 18v3M3 12h3M18 12h3"/>
        <path d="M5.6 5.6l2.1 2.1M16.3 16.3l2.1 2.1M5.6 18.4l2.1-2.1M16.3 7.7l2.1-2.1"/>
      </g>
    </symbol>

    <symbol id="brand-opa" viewBox="0 0 24 24">
      <rect width="24" height="24" rx="5" fill="#7D9199"/>
      <path d="M12 3.5 5 6v5.5c0 4.5 3 8.5 7 9.5 4-1 7-5 7-9.5V6l-7-2.5z" fill="#fff"/>
      <path d="m8.5 12 2.5 2.5L16 9.5" fill="none" stroke="#7D9199" stroke-width="1.8" stroke-linecap="round" stroke-linejoin="round"/>
    </symbol>

    <symbol id="brand-airflow" viewBox="0 0 24 24">
      <rect width="24" height="24" rx="5" fill="#017CEE"/>
      <path d="M12 4c0 4.5-3.5 8-8 8 4.5 0 8 3.5 8 8 0-4.5 3.5-8 8-8-4.5 0-8-3.5-8-8z" fill="#fff"/>
      <circle cx="12" cy="12" r="1.6" fill="#017CEE"/>
    </symbol>

    <symbol id="brand-superset" viewBox="0 0 24 24">
      <rect width="24" height="24" rx="5" fill="#20A7C9"/>
      <rect x="5"    y="13" width="3" height="6"  fill="#fff"/>
      <rect x="10.5" y="9"  width="3" height="10" fill="#fff"/>
      <rect x="16"   y="6"  width="3" height="13" fill="#fff"/>
      <path d="M5 10.5 12 6l7 2" stroke="#fff" stroke-width="1.4" fill="none" stroke-linecap="round"/>
    </symbol>

    <symbol id="brand-openmetadata" viewBox="0 0 24 24">
      <rect width="24" height="24" rx="5" fill="#7C26B5"/>
      <path d="M5 6.5c2.5-1 5-1 7 .5 2-1.5 4.5-1.5 7-.5v11c-2.5-1-5-1-7 .5-2-1.5-4.5-1.5-7-.5z" fill="#fff"/>
      <path d="M12 7v11" stroke="#7C26B5" stroke-width="1.4"/>
      <path d="M7 9h3M7 11h3M14 9h3M14 11h3M7 13h3M14 13h3" stroke="#7C26B5" stroke-width="1" stroke-linecap="round"/>
    </symbol>

    <symbol id="brand-prometheus" viewBox="0 0 24 24">
      <rect width="24" height="24" rx="5" fill="#E6522C"/>
      <path d="M12 3c0 3-3 4-3 7 0 1.5 1 2.5 1 4-2 0-3-2-3-4 0 4 2 8 5 8s5-4 5-8c0-4-3-5-3-7s-2-2-2 0z" fill="#fff"/>
      <rect x="7.5" y="16" width="9" height="1.6" rx=".6" fill="#fff"/>
      <path d="M9.5 18.6c0 1.4 1.1 2.4 2.5 2.4s2.5-1 2.5-2.4z" fill="#fff"/>
    </symbol>

    <symbol id="brand-opensearch" viewBox="0 0 24 24">
      <rect width="24" height="24" rx="5" fill="#005EB8"/>
      <circle cx="11" cy="11" r="5" fill="none" stroke="#fff" stroke-width="1.8"/>
      <path d="m15 15 4 4" stroke="#fff" stroke-width="2" stroke-linecap="round"/>
      <path d="M8 11a3 3 0 0 1 3-3" stroke="#fff" stroke-width="1.4" fill="none" stroke-linecap="round"/>
    </symbol>

    <!-- ─── Stage-iconen (concept; currentColor outline) ─── -->
    <symbol id="stage-sources" viewBox="0 0 24 24">
      <g fill="none" stroke="currentColor" stroke-width="1.6" stroke-linecap="round" stroke-linejoin="round">
        <path d="M4 6h6l2 2h8v10H4z"/>
        <path d="M9 13l3 3 3-3"/>
        <path d="M12 11v5"/>
      </g>
    </symbol>
    <symbol id="stage-ingestion" viewBox="0 0 24 24">
      <g fill="none" stroke="currentColor" stroke-width="1.6" stroke-linecap="round" stroke-linejoin="round">
        <path d="M3 7h12"/><path d="M3 12h14"/><path d="M3 17h12"/>
        <path d="m17 4 4 3-4 3"/><path d="m15 14 4 3-4 3"/>
        <path d="m13 9 4 3-4 3" opacity=".5"/>
      </g>
    </symbol>
    <symbol id="stage-storage" viewBox="0 0 24 24">
      <g fill="none" stroke="currentColor" stroke-width="1.6" stroke-linecap="round" stroke-linejoin="round">
        <ellipse cx="12" cy="5" rx="8" ry="3"/>
        <path d="M4 5v6c0 1.7 3.6 3 8 3s8-1.3 8-3V5"/>
        <path d="M4 11v6c0 1.7 3.6 3 8 3s8-1.3 8-3v-6"/>
      </g>
    </symbol>
    <symbol id="stage-transformation" viewBox="0 0 24 24">
      <g fill="none" stroke="currentColor" stroke-width="1.6" stroke-linecap="round" stroke-linejoin="round">
        <circle cx="12" cy="12" r="3"/>
        <path d="M12 3v3M12 18v3M3 12h3M18 12h3M5.6 5.6l2.1 2.1M16.3 16.3l2.1 2.1M5.6 18.4l2.1-2.1M16.3 7.7l2.1-2.1"/>
      </g>
    </symbol>
    <symbol id="stage-consumption" viewBox="0 0 24 24">
      <g fill="none" stroke="currentColor" stroke-width="1.6" stroke-linecap="round" stroke-linejoin="round">
        <path d="M3 3v18h18"/>
        <rect x="7"  y="13" width="3" height="5"/>
        <rect x="12" y="9"  width="3" height="9"/>
        <rect x="17" y="5"  width="3" height="13"/>
      </g>
    </symbol>
    <symbol id="stage-discovery" viewBox="0 0 24 24">
      <g fill="none" stroke="currentColor" stroke-width="1.6" stroke-linecap="round" stroke-linejoin="round">
        <circle cx="11" cy="11" r="6"/>
        <path d="m20 20-4.3-4.3"/>
        <path d="M11 8v6M8 11h6" opacity=".5"/>
      </g>
    </symbol>
    <symbol id="stage-pipeline" viewBox="0 0 24 24">
      <g fill="none" stroke="currentColor" stroke-width="1.6" stroke-linecap="round" stroke-linejoin="round">
        <circle cx="5"  cy="6"  r="2"/>
        <circle cx="5"  cy="18" r="2"/>
        <circle cx="19" cy="12" r="2"/>
        <path d="M5 8v8"/>
        <path d="M7 6h6a4 4 0 0 1 4 4v.5"/>
        <path d="M7 18h6a4 4 0 0 0 4-4v-.5"/>
      </g>
    </symbol>
    <symbol id="stage-observability" viewBox="0 0 24 24">
      <g fill="none" stroke="currentColor" stroke-width="1.6" stroke-linecap="round" stroke-linejoin="round">
        <path d="M3 12h3l2-6 4 12 2-6h3"/>
        <circle cx="19" cy="12" r="2"/>
      </g>
    </symbol>
    <symbol id="stage-identity" viewBox="0 0 24 24">
      <g fill="none" stroke="currentColor" stroke-width="1.6" stroke-linecap="round" stroke-linejoin="round">
        <path d="M12 3 4 6v6c0 5 3.5 8.5 8 9.5 4.5-1 8-4.5 8-9.5V6z"/>
        <path d="m8.5 12 2.5 2.5L16 9.5"/>
      </g>
    </symbol>

    <!-- Pipeline-pijl tussen stages -->
    <symbol id="flow-arrow" viewBox="0 0 30 60" overflow="visible">
      <polygon points="0,16 18,30 0,44" fill="#475766"/>
    </symbol>
  </defs>

  <!-- ─── Achtergrond ─── -->
  <rect width="1600" height="1000" fill="#0e1116"/>
  <rect width="1600" height="1000" fill="url(#dotgrid)" opacity="0.6"/>

  <!-- ═════════════════════ TITEL ═════════════════════ -->
  <g aria-label="Titel">
    <text x="30" y="58" font-size="30" font-weight="700" fill="#e6edf3">UWV Reference Data- &amp; Analyseplatform</text>
    <text x="30" y="86" font-size="13" fill="#9ba6b1">Synthetische data · referentie-implementatie · open-source componenten</text>

    <!-- Lane-legenda rechtsboven -->
    <g transform="translate(1100,55)" font-size="11" fill="#9ba6b1">
      <g transform="translate(0,0)">
        <rect width="14" height="14" rx="4" fill="#d946ef" opacity="0.85"/>
        <text x="20" y="11">Discovery</text>
      </g>
      <g transform="translate(110,0)">
        <rect width="14" height="14" rx="4" fill="#8b5cf6" opacity="0.85"/>
        <text x="20" y="11">Pipeline</text>
      </g>
      <g transform="translate(210,0)">
        <rect width="14" height="14" rx="4" fill="#f59e0b" opacity="0.85"/>
        <text x="20" y="11">Observability</text>
      </g>
      <g transform="translate(335,0)">
        <rect width="14" height="14" rx="4" fill="#f87171" opacity="0.85"/>
        <text x="20" y="11">Identiteit</text>
      </g>
      <g transform="translate(445,0)">
        <rect width="14" height="14" rx="4" fill="#34d399" opacity="0.85"/>
        <text x="20" y="11">Output</text>
      </g>
    </g>
  </g>

  <!-- ═════════════════════ DISCOVERY BANNER (boven) ═════════════════════ -->
  <g aria-label="Lane: Data Discovery" color="#d946ef">
    <!-- Pill -->
    <rect x="30" y="110" width="1540" height="60" rx="30"
          fill="#181a23" stroke="#d946ef" stroke-opacity="0.45" stroke-width="1.5"/>
    <!-- Linker pijl -->
    <polygon points="20,140 50,124 50,156" fill="#d946ef" opacity="0.85"/>
    <!-- Rechter pijl -->
    <polygon points="1580,140 1550,124 1550,156" fill="#d946ef" opacity="0.85"/>

    <!-- Label -->
    <g transform="translate(70,140)">
      <use href="#stage-discovery" x="0" y="-12" width="22" height="22"/>
      <text x="32" y="5" font-size="14" font-weight="700" letter-spacing="2.4" fill="#d946ef">DATA DISCOVERY</text>
    </g>

    <!-- Component chip(s) -->
    <g transform="translate(310,124)">
      <rect width="240" height="32" rx="16" fill="#161b22" stroke="#30363d"/>
      <use href="#brand-openmetadata" x="6" y="4" width="24" height="24"/>
      <text x="40" y="20" font-size="13" fill="#e6edf3">OpenMetadata</text>
      <text x="155" y="20" font-size="11" fill="#9ba6b1">catalog · lineage · DQ</text>
    </g>

    <!-- Korte uitleg rechts -->
    <text x="600" y="145" font-size="12" fill="#9ba6b1" font-style="italic">
      „Wat hebben we, wie is eigenaar, hoe is het opgebouwd, en is het op orde?"
    </text>
  </g>

  <!-- ═════════════════════ HOOFDRIJ ═════════════════════ -->

  <!-- ─── Sources kolom (links) ─── -->
  <g aria-label="Bronnen" transform="translate(30,200)">
    <rect width="170" height="540" rx="10" fill="#141a21" stroke="#2a323b"/>
    <use href="#stage-sources" x="20" y="20" width="22" height="22" color="#38bdf8"/>
    <text x="50" y="37" font-size="14" font-weight="700" letter-spacing="1.4" fill="#38bdf8">BRONNEN</text>
    <text x="20" y="62" font-size="11" fill="#9ba6b1">Synthetische UWV-bronsystemen.</text>

    <!-- Batches tag -->
    <g transform="translate(20,110)" filter="url(#tile-shadow)">
      <rect width="130" height="56" rx="8" fill="#1d262e" stroke="#38bdf8" stroke-opacity="0.45"/>
      <text x="65" y="22" text-anchor="middle" font-size="11" font-weight="700" letter-spacing="1.4" fill="#38bdf8">BATCHES</text>
      <text x="65" y="40" text-anchor="middle" font-size="10" fill="#9ba6b1">nightly · S3 · CSV</text>
    </g>

    <!-- Streams tag -->
    <g transform="translate(20,200)" filter="url(#tile-shadow)">
      <rect width="130" height="56" rx="8" fill="#1d262e" stroke="#38bdf8" stroke-opacity="0.45"/>
      <text x="65" y="22" text-anchor="middle" font-size="11" font-weight="700" letter-spacing="1.4" fill="#38bdf8">STREAMS</text>
      <text x="65" y="40" text-anchor="middle" font-size="10" fill="#9ba6b1">events · CDC</text>
    </g>

    <!-- Voetnoot -->
    <text x="20" y="490" font-size="10" fill="#6b7682" font-style="italic">2 ingangsmodi.</text>
    <text x="20" y="505" font-size="10" fill="#6b7682" font-style="italic">Geen productie-PII.</text>
  </g>

  <!-- Pijl 1: Sources → Ingestion -->
  <use href="#flow-arrow" x="200" y="445" width="30" height="60"/>

  <!-- ─── Ingestion stage ─── -->
  <g aria-label="Ingestie" transform="translate(230,200)">
    <rect width="270" height="540" rx="10" fill="#161b22" stroke="#30363d"/>
    <use href="#stage-ingestion" x="20" y="20" width="22" height="22" color="#e6edf3"/>
    <text x="50" y="37" font-size="16" font-weight="700" fill="#e6edf3">Ingestie</text>
    <text x="20" y="62" font-size="11" fill="#9ba6b1">Data uit bronsystemen ophalen</text>
    <text x="20" y="78" font-size="11" fill="#9ba6b1">en op een event-bus zetten.</text>

    <!-- NiFi tile -->
    <g transform="translate(15,120)" filter="url(#tile-shadow)">
      <rect width="240" height="64" rx="8" fill="#1f262d" stroke="#3a434c"/>
      <use href="#brand-nifi" x="12" y="12" width="40" height="40"/>
      <text x="62"  y="30" font-size="14" font-weight="600" fill="#e6edf3">Apache NiFi</text>
      <text x="62"  y="46" font-size="11" fill="#9ba6b1">visuele ingestion-flows</text>
      <circle cx="220" cy="32" r="4" fill="#3fb950"/>
    </g>

    <!-- Kafka tile -->
    <g transform="translate(15,200)" filter="url(#tile-shadow)">
      <rect width="240" height="64" rx="8" fill="#1f262d" stroke="#3a434c"/>
      <use href="#brand-kafka" x="12" y="12" width="40" height="40"/>
      <text x="62"  y="30" font-size="14" font-weight="600" fill="#e6edf3">Kafka</text>
      <text x="62"  y="46" font-size="11" fill="#9ba6b1">event-bus · doorvoer</text>
      <circle cx="220" cy="32" r="4" fill="#3fb950"/>
    </g>
  </g>

  <!-- Pijl 2: Ingestion → Storage -->
  <use href="#flow-arrow" x="500" y="445" width="30" height="60"/>

  <!-- ─── Storage stage ─── -->
  <g aria-label="Opslag en verwerking" transform="translate(530,200)">
    <rect width="270" height="540" rx="10" fill="#161b22" stroke="#30363d"/>
    <use href="#stage-storage" x="20" y="20" width="22" height="22" color="#e6edf3"/>
    <text x="50" y="37" font-size="16" font-weight="700" fill="#e6edf3">Opslag &amp; Verwerking</text>
    <text x="20" y="62" font-size="11" fill="#9ba6b1">Lakehouse met zones en een</text>
    <text x="20" y="78" font-size="11" fill="#9ba6b1">tabel-catalog.</text>

    <!-- MinIO tile -->
    <g transform="translate(15,120)" filter="url(#tile-shadow)">
      <rect width="240" height="64" rx="8" fill="#1f262d" stroke="#3a434c"/>
      <use href="#brand-minio" x="12" y="12" width="40" height="40"/>
      <text x="62"  y="30" font-size="14" font-weight="600" fill="#e6edf3">MinIO</text>
      <text x="62"  y="46" font-size="11" fill="#9ba6b1">bronze · silver · gold</text>
      <circle cx="220" cy="32" r="4" fill="#3fb950"/>
    </g>

    <!-- Hive tile -->
    <g transform="translate(15,200)" filter="url(#tile-shadow)">
      <rect width="240" height="64" rx="8" fill="#1f262d" stroke="#3a434c"/>
      <use href="#brand-hive" x="12" y="12" width="40" height="40"/>
      <text x="62"  y="30" font-size="14" font-weight="600" fill="#e6edf3">Hive Metastore</text>
      <text x="62"  y="46" font-size="11" fill="#9ba6b1">tabellen · partities</text>
      <circle cx="220" cy="32" r="4" fill="#3fb950"/>
    </g>

    <!-- Zones-illustratie onderin -->
    <g transform="translate(15,300)">
      <text x="0" y="0" font-size="10" font-weight="700" letter-spacing="1.2" fill="#9ba6b1">DATAZONES</text>
      <g font-size="10" fill="#e6edf3">
        <rect x="0"   y="14" width="55" height="22" rx="4" fill="#3a2a14" stroke="#7a5a2e"/>
        <text x="27"  y="29" text-anchor="middle" fill="#cd853f">bronze</text>
        <rect x="60"  y="14" width="55" height="22" rx="4" fill="#2a2a2a" stroke="#666"/>
        <text x="87"  y="29" text-anchor="middle" fill="#c0c0c0">silver</text>
        <rect x="120" y="14" width="55" height="22" rx="4" fill="#3a3014" stroke="#a08838"/>
        <text x="147" y="29" text-anchor="middle" fill="#ffd700">gold</text>
        <rect x="180" y="14" width="55" height="22" rx="4" fill="#3a1414" stroke="#a04848"/>
        <text x="207" y="29" text-anchor="middle" fill="#f88080">sensitive</text>
        <rect x="60"  y="44" width="115" height="22" rx="4" fill="#1a2a3a" stroke="#3a5a7a"/>
        <text x="117" y="59" text-anchor="middle" fill="#79c0ff">sandbox (gepseudonimiseerd)</text>
      </g>
    </g>
  </g>

  <!-- Pijl 3: Storage → Transformation -->
  <use href="#flow-arrow" x="800" y="445" width="30" height="60"/>

  <!-- ─── Transformation stage ─── -->
  <g aria-label="Transformatie en modellen" transform="translate(830,200)">
    <rect width="310" height="540" rx="10" fill="#161b22" stroke="#30363d"/>
    <use href="#stage-transformation" x="20" y="20" width="22" height="22" color="#e6edf3"/>
    <text x="50" y="37" font-size="16" font-weight="700" fill="#e6edf3">Transformatie &amp; Modellen</text>
    <text x="20" y="62" font-size="11" fill="#9ba6b1">Opschonen, joinen, modelleren —</text>
    <text x="20" y="78" font-size="11" fill="#9ba6b1">met policy-checks per query.</text>

    <!-- Spark tile -->
    <g transform="translate(15,110)" filter="url(#tile-shadow)">
      <rect width="280" height="64" rx="8" fill="#1f262d" stroke="#3a434c"/>
      <use href="#brand-spark" x="12" y="12" width="40" height="40"/>
      <text x="62"  y="30" font-size="14" font-weight="600" fill="#e6edf3">Apache Spark</text>
      <text x="62"  y="46" font-size="11" fill="#9ba6b1">streaming + batch transformaties</text>
      <circle cx="260" cy="32" r="4" fill="#3fb950"/>
    </g>

    <!-- Trino tile -->
    <g transform="translate(15,190)" filter="url(#tile-shadow)">
      <rect width="280" height="64" rx="8" fill="#1f262d" stroke="#3a434c"/>
      <use href="#brand-trino" x="12" y="12" width="40" height="40"/>
      <text x="62"  y="30" font-size="14" font-weight="600" fill="#e6edf3">Trino</text>
      <text x="62"  y="46" font-size="11" fill="#9ba6b1">SQL-engine · dbt-modellen</text>
      <circle cx="260" cy="32" r="4" fill="#3fb950"/>
    </g>

    <!-- OPA tile -->
    <g transform="translate(15,270)" filter="url(#tile-shadow)">
      <rect width="280" height="64" rx="8" fill="#1f262d" stroke="#3a434c"/>
      <use href="#brand-opa" x="12" y="12" width="40" height="40"/>
      <text x="62"  y="30" font-size="14" font-weight="600" fill="#e6edf3">OPA</text>
      <text x="62"  y="46" font-size="11" fill="#9ba6b1">doelbinding · rij-filter · masker</text>
      <circle cx="260" cy="32" r="4" fill="#3fb950"/>
    </g>

    <!-- "policy check" annotatie tussen Trino en OPA -->
    <g transform="translate(140,350)">
      <text x="0" y="0" font-size="10" fill="#f59e0b" font-style="italic">↑ policy-check per query</text>
    </g>
  </g>

  <!-- Pijl 4: Transformation → Outputs -->
  <use href="#flow-arrow" x="1140" y="445" width="30" height="60"/>

  <!-- ─── Outputs (rechts) ─── -->
  <g aria-label="Outputs" transform="translate(1170,200)">
    <rect width="280" height="540" rx="10" fill="#161b22" stroke="#34d399" stroke-opacity="0.45"/>
    <use href="#stage-consumption" x="20" y="20" width="22" height="22" color="#34d399"/>
    <text x="50" y="37" font-size="14" font-weight="700" letter-spacing="1" fill="#34d399">OUTPUTS</text>
    <text x="20" y="62" font-size="11" fill="#9ba6b1">Eindgebruikers consumeren via</text>
    <text x="20" y="78" font-size="11" fill="#9ba6b1">dashboards en data-producten.</text>

    <!-- BI / Analytics tile (Superset) -->
    <g transform="translate(15,120)" filter="url(#tile-shadow)">
      <rect width="250" height="80" rx="8" fill="#1f262d" stroke="#34d399" stroke-opacity="0.55" stroke-width="1.5"/>
      <use href="#brand-superset" x="12" y="20" width="40" height="40"/>
      <text x="62"  y="34" font-size="13" font-weight="700" letter-spacing="0.6" fill="#34d399">BI / ANALYTICS</text>
      <text x="62"  y="52" font-size="13" font-weight="500" fill="#e6edf3">Apache Superset</text>
      <text x="62"  y="68" font-size="11" fill="#9ba6b1">dashboards · SQL-Lab</text>
      <circle cx="230" cy="20" r="4" fill="#3fb950"/>
    </g>

    <!-- Data Products tile (Trino+OPA) -->
    <g transform="translate(15,220)" filter="url(#tile-shadow)">
      <rect width="250" height="80" rx="8" fill="#1f262d" stroke="#34d399" stroke-opacity="0.55" stroke-width="1.5"/>
      <use href="#brand-trino" x="12" y="20" width="34" height="34"/>
      <use href="#brand-opa"   x="20" y="40" width="34" height="34"/>
      <text x="62"  y="34" font-size="13" font-weight="700" letter-spacing="0.6" fill="#34d399">DATA PRODUCTS</text>
      <text x="62"  y="52" font-size="13" font-weight="500" fill="#e6edf3">Trino + OPA</text>
      <text x="62"  y="68" font-size="11" fill="#9ba6b1">SQL endpoint per doel + policy</text>
      <circle cx="230" cy="20" r="4" fill="#3fb950"/>
    </g>

    <!-- Doelgroep-uitleg -->
    <g transform="translate(15,320)">
      <text x="0" y="0" font-size="10" font-weight="700" letter-spacing="1" fill="#9ba6b1">VOOR WIE?</text>
      <g font-size="10" fill="#9ba6b1">
        <text x="0" y="20">→ business-rollen (WIA, WW, …)</text>
        <text x="0" y="36">→ analisten (FEZ, SMZ)</text>
        <text x="0" y="52">→ researchers (sandbox)</text>
        <text x="0" y="68">→ andere systemen (data-products)</text>
      </g>
    </g>

    <!-- "geen ML in deze referentie"-noot -->
    <g transform="translate(15,430)">
      <rect width="250" height="46" rx="6" fill="#1a1a25" stroke="#3a3a55" stroke-dasharray="3 3"/>
      <text x="125" y="20" text-anchor="middle" font-size="11" fill="#7d7d99">Machine Learning</text>
      <text x="125" y="36" text-anchor="middle" font-size="10" fill="#5a5a75" font-style="italic">— niet in deze referentie —</text>
    </g>
  </g>

  <!-- ─── Identiteits-pijler (rechts) ─── -->
  <g aria-label="Identiteit en toegang" transform="translate(1470,200)">
    <rect width="100" height="540" rx="10" fill="#181a23" stroke="#f87171" stroke-opacity="0.45"/>
    <use href="#stage-identity" x="40" y="20" width="22" height="22" color="#f87171"/>
    <text x="50" y="60" text-anchor="middle" font-size="11" font-weight="700" letter-spacing="1.4" fill="#f87171">IDENTITEIT</text>

    <!-- Keycloak tile (gecentreerd) -->
    <g transform="translate(20,110)" filter="url(#tile-shadow)">
      <rect width="60" height="60" rx="8" fill="#1f262d" stroke="#3a434c"/>
      <use href="#brand-keycloak" x="10" y="10" width="40" height="40"/>
    </g>
    <text x="50" y="195" text-anchor="middle" font-size="12" font-weight="600" fill="#e6edf3">Keycloak</text>
    <text x="50" y="212" text-anchor="middle" font-size="10" fill="#9ba6b1">OIDC · MFA</text>

    <!-- Verbinding-icoon — "raakt alle lanes" -->
    <g transform="translate(50,250)" stroke="#f87171" stroke-opacity="0.4" stroke-width="1.2" fill="none" stroke-linecap="round">
      <circle r="3" fill="#f87171" stroke="none"/>
      <path d="M0 -10 v-30"/>
      <path d="M0 10 v30"/>
      <path d="M-15 0 h-25" stroke-dasharray="3 3"/>
    </g>

    <!-- Tekst -->
    <text x="50" y="430" text-anchor="middle" font-size="10" fill="#9ba6b1">SSO over</text>
    <text x="50" y="445" text-anchor="middle" font-size="10" fill="#9ba6b1">alle componenten</text>
    <text x="50" y="460" text-anchor="middle" font-size="10" fill="#9ba6b1">— elk valideert</text>
    <text x="50" y="475" text-anchor="middle" font-size="10" fill="#9ba6b1">het OIDC-token</text>

    <!-- Ondertitel -->
    <text x="50" y="510" text-anchor="middle" font-size="9" fill="#6b7682" font-style="italic">audit-log</text>
    <text x="50" y="522" text-anchor="middle" font-size="9" fill="#6b7682" font-style="italic">centraal</text>
  </g>

  <!-- ═════════════════════ PIPELINE BANNER (onder midden) ═════════════════════ -->
  <g aria-label="Lane: Pipeline-orkestratie" color="#8b5cf6">
    <rect x="30" y="760" width="1540" height="60" rx="30"
          fill="#181a23" stroke="#8b5cf6" stroke-opacity="0.45" stroke-width="1.5"/>
    <polygon points="20,790 50,774 50,806" fill="#8b5cf6" opacity="0.85"/>
    <polygon points="1580,790 1550,774 1550,806" fill="#8b5cf6" opacity="0.85"/>

    <g transform="translate(70,790)">
      <use href="#stage-pipeline" x="0" y="-12" width="22" height="22"/>
      <text x="32" y="5" font-size="14" font-weight="700" letter-spacing="2.4" fill="#8b5cf6">DATA PIPELINE</text>
    </g>

    <g transform="translate(310,774)">
      <rect width="220" height="32" rx="16" fill="#161b22" stroke="#30363d"/>
      <use href="#brand-airflow" x="6" y="4" width="24" height="24"/>
      <text x="40" y="20" font-size="13" fill="#e6edf3">Apache Airflow</text>
      <text x="155" y="20" font-size="11" fill="#9ba6b1">DAGs · schedule</text>
    </g>

    <text x="580" y="795" font-size="12" fill="#9ba6b1" font-style="italic">
      „Wat draait wanneer, in welke volgorde, met welke afhankelijkheid."
    </text>
  </g>

  <!-- ═════════════════════ OBSERVABILITY BANNER (onderaan) ═════════════════════ -->
  <g aria-label="Lane: Observability" color="#f59e0b">
    <rect x="30" y="840" width="1540" height="60" rx="30"
          fill="#181a23" stroke="#f59e0b" stroke-opacity="0.45" stroke-width="1.5"/>
    <polygon points="20,870 50,854 50,886" fill="#f59e0b" opacity="0.85"/>
    <polygon points="1580,870 1550,854 1550,886" fill="#f59e0b" opacity="0.85"/>

    <g transform="translate(70,870)">
      <use href="#stage-observability" x="0" y="-12" width="22" height="22"/>
      <text x="32" y="5" font-size="14" font-weight="700" letter-spacing="2.4" fill="#f59e0b">OBSERVABILITY</text>
    </g>

    <g transform="translate(310,854)">
      <rect width="200" height="32" rx="16" fill="#161b22" stroke="#30363d"/>
      <use href="#brand-prometheus" x="6" y="4" width="24" height="24"/>
      <text x="40" y="20" font-size="13" fill="#e6edf3">Prometheus</text>
      <text x="125" y="20" font-size="11" fill="#9ba6b1">metrics · alerts</text>
    </g>

    <g transform="translate(530,854)">
      <rect width="200" height="32" rx="16" fill="#161b22" stroke="#30363d"/>
      <use href="#brand-opensearch" x="6" y="4" width="24" height="24"/>
      <text x="40" y="20" font-size="13" fill="#e6edf3">OpenSearch</text>
      <text x="125" y="20" font-size="11" fill="#9ba6b1">logs · audit</text>
    </g>

    <text x="780" y="875" font-size="12" fill="#9ba6b1" font-style="italic">
      „Gaat het goed? — gezondheid van het platform én audit-trail."
    </text>
  </g>

  <!-- ═════════════════════ LEGENDA / FOOTER ═════════════════════ -->
  <g aria-label="Legenda" transform="translate(30,930)">
    <text x="0" y="0" font-size="11" font-weight="700" letter-spacing="1.4" fill="#9ba6b1">LEZEN</text>

    <g transform="translate(80,-10)" font-size="11" fill="#9ba6b1">
      <g transform="translate(0,5)">
        <rect width="16" height="16" rx="3" fill="#728E9B"/>
        <text x="22" y="13">brand-tegel = component (klikbaar in portal)</text>
      </g>
      <g transform="translate(330,5)">
        <circle cx="8" cy="8" r="4" fill="#3fb950"/>
        <text x="22" y="13">live status uit Prometheus (up{job=…})</text>
      </g>
      <g transform="translate(640,5)">
        <use href="#flow-arrow" x="0" y="-8" width="20" height="40"/>
        <text x="28" y="13">data-flow tussen lanes</text>
      </g>
    </g>

    <g transform="translate(80,15)" font-size="11" fill="#9ba6b1">
      <g transform="translate(0,5)">
        <rect width="16" height="16" rx="8" fill="none" stroke="#d946ef" stroke-width="1.5"/>
        <text x="22" y="13">overlay-banner = laag boven de keten heen</text>
      </g>
    </g>

    <text x="0" y="48" font-size="10" fill="#6b7682">
      Geïnspireerd op het Monte-Carlo-data-platform-model · alle componenten zijn open source · toegang en data-zichtbaarheid via OPA-policies en Keycloak-rollen.
    </text>
  </g>
</svg>
